<svg width="4125" height="1655" xmlns="http://www.w3.org/2000/svg" xmlns:xlink="http://www.w3.org/1999/xlink" xml:space="preserve" overflow="hidden"><defs><clipPath id="clip0"><rect x="67" y="210" width="4125" height="1655"/></clipPath></defs><g clip-path="url(#clip0)" transform="translate(-67 -210)"><rect x="142" y="514" width="802" height="459" stroke="#000000" stroke-width="10.3125" stroke-miterlimit="8" fill="#FFFFFF"/><text font-family="Yu Gothic,Yu Gothic_MSFontService,sans-serif" font-weight="400" font-size="83" transform="matrix(1 0 0 1 395.666 770)">Enclave</text><text font-family="Yu Gothic,Yu Gothic_MSFontService,sans-serif" font-weight="400" font-size="83" transform="matrix(1 0 0 1 131.14 1792)">Attester</text><rect x="1223" y="1307" width="802" height="459" stroke="#000000" stroke-width="10.3125" stroke-miterlimit="8" fill="#FFFFFF"/><text font-family="Yu Gothic,Yu Gothic_MSFontService,sans-serif" font-weight="400" font-size="83" transform="matrix(1 0 0 1 1315.35 1513)">Quoting Enclave</text><text font-family="Yu Gothic,Yu Gothic_MSFontService,sans-serif" font-weight="400" font-size="83" transform="matrix(1 0 0 1 1513.58 1612)">(QE3)</text><path d="M1223 743.5C1223 616.751 1325.75 514 1452.5 514L1795.5 514C1922.25 514 2025 616.751 2025 743.5L2025 743.5C2025 870.25 1922.25 973.001 1795.5 973.001L1452.5 973C1325.75 973 1223 870.249 1223 743.5Z" stroke="#000000" stroke-width="10.3125" stroke-miterlimit="8" fill="#FFFFFF" fill-rule="evenodd"/><text font-family="Yu Gothic,Yu Gothic_MSFontService,sans-serif" font-weight="400" font-size="83" transform="matrix(1 0 0 1 1410.74 770)">Application</text><path d="M2304 743.5C2304 616.751 2406.75 514 2533.5 514L2876.5 514C3003.25 514 3106 616.751 3106 743.5L3106 743.5C3106 870.25 3003.25 973.001 2876.5 973.001L2533.5 973C2406.75 973 2304 870.249 2304 743.5Z" stroke="#000000" stroke-width="10.3125" stroke-miterlimit="8" fill="#FFFFFF" fill-rule="evenodd"/><text font-family="Yu Gothic,Yu Gothic_MSFontService,sans-serif" font-weight="400" font-size="83" transform="matrix(1 0 0 1 2454.18 770)">Relying Party</text><path d="M3385 743.5C3385 616.751 3487.75 514 3614.5 514L3957.5 514C4084.25 514 4187 616.751 4187 743.5L4187 743.5C4187 870.25 4084.25 973.001 3957.5 973.001L3614.5 973C3487.75 973 3385 870.249 3385 743.5Z" stroke="#000000" stroke-width="10.3125" stroke-miterlimit="8" fill="#FFFFFF" fill-rule="evenodd"/><text font-family="Yu Gothic,Yu Gothic_MSFontService,sans-serif" font-weight="400" font-size="83" transform="matrix(1 0 0 1 3647.72 770)">Verifier</text><path d="M3385 1536.5C3385 1409.75 3487.75 1307 3614.5 1307L3957.5 1307C4084.25 1307 4187 1409.75 4187 1536.5L4187 1536.5C4187 1663.25 4084.25 1766 3957.5 1766L3614.5 1766C3487.75 1766 3385 1663.25 3385 1536.5Z" stroke="#000000" stroke-width="10.3125" stroke-miterlimit="8" fill="#FFFFFF" fill-rule="evenodd"/><text font-family="Yu Gothic,Yu Gothic_MSFontService,sans-serif" font-weight="400" font-size="73" transform="matrix(1 0 0 1 3578.68 1428)">Provisioning </text><text font-family="Yu Gothic,Yu Gothic_MSFontService,sans-serif" font-weight="400" font-size="73" transform="matrix(1 0 0 1 3609.91 1516)">Certificate </text><text font-family="Yu Gothic,Yu Gothic_MSFontService,sans-serif" font-weight="400" font-size="73" transform="matrix(1 0 0 1 3515.38 1604)">Caching Service</text><text font-family="Yu Gothic,Yu Gothic_MSFontService,sans-serif" font-weight="400" font-size="73" transform="matrix(1 0 0 1 3660.9 1692)">(PCCS)</text><rect x="71.9998" y="437" width="2024" height="1419" stroke="#000000" stroke-width="10.3125" stroke-miterlimit="8" stroke-dasharray="10.3125 10.3125" fill="none"/><path d="M978.375 689.125 1223.38 689.125 1223.38 702.875 978.375 702.875ZM985.25 716.625 944 696 985.25 675.375Z"/><path d="M34.375-6.87496 245.007-6.87468 245.007 6.87532 34.375 6.87504ZM41.25 20.6251 0 0 41.25-20.6249ZM238.132-20.6247 279.382 0.000360892 238.132 20.6253Z" transform="matrix(-1 0 0 1 1223.38 788)"/><path d="M1585.87 1007.38 1585.88 1272.74 1572.13 1272.74 1572.12 1007.38ZM1558.37 1014.25 1579 973 1599.62 1014.25ZM1599.63 1265.87 1579 1307.12 1558.38 1265.87Z"/><path d="M6.875-7.42592e-06 6.87532 299.743-6.87468 299.743-6.875 7.42592e-06ZM20.6253 292.868 0.000360892 334.118-20.6247 292.868Z" transform="matrix(1 0 0 -1 1683 1307.12)"/><path d="M2059.38 689.125 2304.38 689.125 2304.38 702.875 2059.38 702.875ZM2066.25 716.625 2025 696 2066.25 675.375Z"/><path d="M34.375-6.87496 279.382-6.87464 279.382 6.87536 34.375 6.87504ZM41.25 20.6251 0 0 41.25-20.6249Z" transform="matrix(-1 0 0 1 2304.38 788)"/><path d="M3110 689.125 3355.01 689.125 3355.01 702.875 3110 702.875ZM3348.13 675.375 3389.38 696 3348.13 716.625Z"/><path d="M8.88079e-06-6.875 245.007-6.87468 245.007 6.87532-8.88079e-06 6.875ZM238.132-20.6247 279.382 0.000360892 238.132 20.6253Z" transform="matrix(-1 0 0 1 3389.38 788)"/><path d="M6.875-7.42592e-06 6.87532 299.743-6.87468 299.743-6.875 7.42592e-06ZM20.6253 292.868 0.000360892 334.118-20.6247 292.868Z" transform="matrix(1 0 0 -1 3786 1307.12)"/><text font-family="Yu Gothic,Yu Gothic_MSFontService,sans-serif" font-weight="700" font-size="110" transform="matrix(1 0 0 1 2114.67 664)">①</text><text font-family="Yu Gothic,Yu Gothic_MSFontService,sans-serif" font-weight="700" font-size="110" transform="matrix(1 0 0 1 2114.67 912)">⑤</text><text font-family="Yu Gothic,Yu Gothic_MSFontService,sans-serif" font-weight="700" font-size="110" transform="matrix(1 0 0 1 3183.34 649)">⑥</text><text font-family="Yu Gothic,Yu Gothic_MSFontService,sans-serif" font-weight="700" font-size="110" transform="matrix(1 0 0 1 3813.84 1195)">⑦</text><text font-family="Yu Gothic,Yu Gothic_MSFontService,sans-serif" font-weight="700" font-size="110" transform="matrix(1 0 0 1 3731.08 912)">⑧</text><text font-family="Yu Gothic,Yu Gothic_MSFontService,sans-serif" font-weight="700" font-size="110" transform="matrix(1 0 0 1 1032.46 649)">②</text><text font-family="Yu Gothic,Yu Gothic_MSFontService,sans-serif" font-weight="700" font-size="110" transform="matrix(1 0 0 1 1032.46 912)">③</text><text font-family="Yu Gothic,Yu Gothic_MSFontService,sans-serif" font-weight="700" font-size="110" transform="matrix(1 0 0 1 1440.02 1195)">③</text><text font-family="Yu Gothic,Yu Gothic_MSFontService,sans-serif" font-weight="700" font-size="110" transform="matrix(1 0 0 1 1577.7 1742)">④</text><text font-family="Yu Gothic,Yu Gothic_MSFontService,sans-serif" font-weight="700" font-size="110" transform="matrix(1 0 0 1 1701.59 1193)">⑤</text><text font-family="Yu Gothic,Yu Gothic_MSFontService,sans-serif" font-weight="700" font-size="110" transform="matrix(1 0 0 1 3183.34 912)">⑨</text><text font-family="Yu Gothic,Yu Gothic_MSFontService,sans-serif" font-weight="700" font-size="110" transform="matrix(1 0 0 1 2650.12 912)">⑩</text><path d="M34.375-6.875 140.938-6.875 140.938 2168.8 38.9583 2168.8 38.9583 2155.05 134.062 2155.05 127.188 2161.93 127.188 0 134.062 6.875 34.375 6.875ZM41.25 20.625 0 0 41.25-20.625ZM45.8333 2182.55 4.58333 2161.93 45.8333 2141.3Z" fill="#70AD47" transform="matrix(-1.83697e-16 -1 -1 1.83697e-16 2706.93 516.583)"/><text font-family="Yu Gothic,Yu Gothic_MSFontService,sans-serif" font-weight="700" font-size="110" transform="matrix(1 0 0 1 1608.67 344)">⑪</text></g></svg>