<svg width="2034" height="762" xmlns="http://www.w3.org/2000/svg" xmlns:xlink="http://www.w3.org/1999/xlink" xml:space="preserve" overflow="hidden"><defs><clipPath id="clip0"><rect x="67" y="1103" width="2034" height="762"/></clipPath></defs><g clip-path="url(#clip0)" transform="translate(-67 -1103)"><rect x="142" y="1184" width="802" height="459" stroke="#000000" stroke-width="10.3125" stroke-miterlimit="8" fill="#FFFFFF"/><text font-family="Yu Gothic,Yu Gothic_MSFontService,sans-serif" font-weight="400" font-size="83" transform="matrix(1 0 0 1 310.301 1292)">Provisioning</text><text font-family="Yu Gothic,Yu Gothic_MSFontService,sans-serif" font-weight="400" font-size="83" transform="matrix(1 0 0 1 309.728 1391)">Certification </text><text font-family="Yu Gothic,Yu Gothic_MSFontService,sans-serif" font-weight="400" font-size="83" transform="matrix(1 0 0 1 282.801 1490)">Enclave(PCE)</text><text font-family="Yu Gothic,Yu Gothic_MSFontService,sans-serif" font-weight="400" font-size="83" transform="matrix(1 0 0 1 131.14 1792)">Attester</text><rect x="1223" y="1181" width="802" height="459" stroke="#000000" stroke-width="10.3125" stroke-miterlimit="8" fill="#FFFFFF"/><text font-family="Yu Gothic,Yu Gothic_MSFontService,sans-serif" font-weight="400" font-size="83" transform="matrix(1 0 0 1 1315.35 1387)">Quoting Enclave</text><text font-family="Yu Gothic,Yu Gothic_MSFontService,sans-serif" font-weight="400" font-size="83" transform="matrix(1 0 0 1 1513.58 1486)">(QE3)</text><rect x="71.9998" y="1108" width="2024" height="748" stroke="#000000" stroke-width="10.3125" stroke-miterlimit="8" stroke-dasharray="10.3125 10.3125" fill="none"/><path d="M34.4572-6.45156 245.094-3.8599 244.925 9.88906 34.288 7.2974ZM40.9931 21.1309 0 0 41.5006-20.1159ZM238.389-17.6934 279.382 3.4375 237.882 23.5534Z" transform="matrix(1 0 0 -1 944 1339.44)"/><text font-family="Yu Gothic,Yu Gothic_MSFontService,sans-serif" font-weight="700" font-size="110" transform="matrix(1 0 0 1 1033.19 1303)">②</text><text font-family="Yu Gothic,Yu Gothic_MSFontService,sans-serif" font-weight="700" font-size="110" transform="matrix(1 0 0 1 1577.7 1616)">①</text><path d="M34.375-6.87496 279.382-6.87464 279.382 6.87536 34.375 6.87504ZM41.25 20.6251 0 0 41.25-20.6249Z" transform="matrix(-1 0 0 1 1223.38 1490)"/><text font-family="Yu Gothic,Yu Gothic_MSFontService,sans-serif" font-weight="700" font-size="110" transform="matrix(1 0 0 1 1033.19 1606)">④</text><text font-family="Yu Gothic,Yu Gothic_MSFontService,sans-serif" font-weight="700" font-size="110" transform="matrix(1 0 0 1 483.161 1616)">③</text></g></svg>