<svg width="2732" height="1232" xmlns="http://www.w3.org/2000/svg" xmlns:xlink="http://www.w3.org/1999/xlink" xml:space="preserve" overflow="hidden"><defs><clipPath id="clip0"><rect x="302" y="201" width="2732" height="1232"/></clipPath><clipPath id="clip1"><rect x="917" y="627" width="139" height="139"/></clipPath><clipPath id="clip2"><rect x="917" y="627" width="139" height="139"/></clipPath><clipPath id="clip3"><rect x="917" y="627" width="139" height="139"/></clipPath><clipPath id="clip4"><rect x="2150" y="1050" width="141" height="140"/></clipPath><clipPath id="clip5"><rect x="2150" y="1050" width="141" height="140"/></clipPath><clipPath id="clip6"><rect x="2150" y="1050" width="141" height="140"/></clipPath></defs><g clip-path="url(#clip0)" transform="translate(-302 -201)"><path d="M838.5 232.187C838.5 248.031 825.656 260.875 809.813 260.875L809.813 232.187C809.813 240.109 803.391 246.531 795.469 246.531 787.547 246.531 781.125 240.109 781.125 232.187L781.125 260.875 333.187 260.875C317.344 260.875 304.5 273.719 304.5 289.563L304.5 633.813C304.5 649.656 317.344 662.5 333.187 662.5 349.031 662.5 361.875 649.656 361.875 633.813L361.875 605.125 809.813 605.125C825.656 605.125 838.5 592.281 838.5 576.437ZM333.187 318.25C349.031 318.25 361.875 305.406 361.875 289.563 361.875 281.641 355.453 275.219 347.531 275.219 339.609 275.219 333.187 281.641 333.187 289.563Z" fill="#FFFFFF" fill-rule="evenodd"/><path d="M333.187 318.25C349.031 318.25 361.875 305.406 361.875 289.563 361.875 281.641 355.453 275.219 347.531 275.219 339.609 275.219 333.187 281.641 333.187 289.563ZM809.813 260.875C825.656 260.875 838.5 248.031 838.5 232.188 838.5 216.344 825.656 203.501 809.813 203.501 793.969 203.501 781.125 216.344 781.125 232.188 781.125 240.11 787.547 246.532 795.469 246.532 803.391 246.532 809.813 240.11 809.813 232.188Z" fill="#CDCDCD" fill-rule="evenodd"/><path d="M304.5 289.563C304.5 273.719 317.344 260.875 333.187 260.875L781.125 260.875 781.125 232.187C781.125 216.344 793.968 203.5 809.812 203.5 825.656 203.5 838.499 216.344 838.499 232.187L838.5 576.437C838.5 592.281 825.656 605.125 809.813 605.125L361.875 605.125 361.875 633.813C361.875 649.656 349.032 662.5 333.188 662.5 317.344 662.5 304.501 649.656 304.501 633.813ZM781.125 260.875 809.813 260.875C825.656 260.875 838.5 248.031 838.5 232.188M809.813 260.875 809.813 232.187C809.813 240.109 803.391 246.531 795.469 246.531 787.547 246.531 781.125 240.109 781.125 232.187M333.187 318.25 333.187 289.563C333.187 281.641 339.609 275.219 347.531 275.219 355.453 275.219 361.875 281.641 361.875 289.563 361.875 305.406 349.032 318.25 333.188 318.25 317.344 318.25 304.501 305.406 304.501 289.563M361.875 289.563 361.875 605.125" stroke="#000000" stroke-width="4.58333" stroke-miterlimit="8" fill="none" fill-rule="evenodd"/><text font-family="Yu Gothic,Yu Gothic_MSFontService,sans-serif" font-weight="400" font-size="83" transform="matrix(1 0 0 1 458.103 409)">Report</text><text font-family="Yu Gothic,Yu Gothic_MSFontService,sans-serif" font-weight="400" font-size="83" transform="matrix(1 0 0 1 474.717 508)">(QE3)</text><path d="M1755.5 1000.19C1755.5 1016.03 1742.66 1028.88 1726.81 1028.88L1726.81 1000.19C1726.81 1008.11 1720.39 1014.53 1712.47 1014.53 1704.55 1014.53 1698.12 1008.11 1698.12 1000.19L1698.13 1028.87 1142.19 1028.87C1126.34 1028.87 1113.5 1041.72 1113.5 1057.56L1113.5 1401.81C1113.5 1417.66 1126.34 1430.5 1142.19 1430.5 1158.03 1430.5 1170.88 1417.66 1170.88 1401.81L1170.87 1373.12 1726.81 1373.12C1742.66 1373.12 1755.5 1360.28 1755.5 1344.44ZM1142.19 1086.25C1158.03 1086.25 1170.88 1073.41 1170.88 1057.56 1170.88 1049.64 1164.45 1043.22 1156.53 1043.22 1148.61 1043.22 1142.19 1049.64 1142.19 1057.56Z" fill="#FFFFFF" fill-rule="evenodd"/><path d="M1142.19 1086.25C1158.03 1086.25 1170.88 1073.41 1170.88 1057.56 1170.88 1049.64 1164.45 1043.22 1156.53 1043.22 1148.61 1043.22 1142.19 1049.64 1142.19 1057.56ZM1726.81 1028.87C1742.66 1028.87 1755.5 1016.03 1755.5 1000.19 1755.5 984.343 1742.66 971.499 1726.81 971.499 1710.97 971.499 1698.12 984.343 1698.12 1000.19 1698.12 1008.11 1704.55 1014.53 1712.47 1014.53 1720.39 1014.53 1726.81 1008.11 1726.81 1000.19Z" fill="#CDCDCD" fill-rule="evenodd"/><path d="M1113.5 1057.56C1113.5 1041.72 1126.34 1028.87 1142.19 1028.87L1698.13 1028.87 1698.13 1000.19C1698.13 984.344 1710.97 971.5 1726.81 971.5 1742.66 971.5 1755.5 984.344 1755.5 1000.19L1755.5 1344.44C1755.5 1360.28 1742.66 1373.12 1726.81 1373.12L1170.87 1373.12 1170.87 1401.81C1170.87 1417.66 1158.03 1430.5 1142.19 1430.5 1126.34 1430.5 1113.5 1417.66 1113.5 1401.81ZM1698.13 1028.87 1726.81 1028.87C1742.66 1028.87 1755.5 1016.03 1755.5 1000.19M1726.81 1028.87 1726.81 1000.19C1726.81 1008.11 1720.39 1014.53 1712.47 1014.53 1704.55 1014.53 1698.12 1008.11 1698.12 1000.19M1142.19 1086.25 1142.19 1057.56C1142.19 1049.64 1148.61 1043.22 1156.53 1043.22 1164.45 1043.22 1170.88 1049.64 1170.88 1057.56 1170.88 1073.41 1158.03 1086.25 1142.19 1086.25 1126.34 1086.25 1113.5 1073.41 1113.5 1057.56M1170.87 1057.56 1170.87 1373.12" stroke="#000000" stroke-width="4.58333" stroke-miterlimit="8" fill="none" fill-rule="evenodd"/><text font-family="Yu Gothic,Yu Gothic_MSFontService,sans-serif" font-weight="400" font-size="83" transform="matrix(1 0 0 1 1321.4 1177)">Report</text><text font-family="Yu Gothic,Yu Gothic_MSFontService,sans-serif" font-weight="400" font-size="83" transform="matrix(1 0 0 1 1268.97 1276)">(Enclave)</text><path d="M9.90667e-05-6.875 341.301-6.87008 341.301 6.87992-9.90667e-05 6.875ZM334.427-20.6202 375.676 0.00541339 334.426 20.6298Z" transform="matrix(1 0 0 -1 838 432.006)"/><path d="M6.875-1.24396e-05 6.87502 13.75-6.87498 13.75-6.875 1.24396e-05ZM6.87505 27.5 6.87507 41.25-6.87493 41.25-6.87495 27.5ZM6.8751 55 6.87512 68.75-6.87488 68.75-6.8749 55ZM6.87515 82.5 6.87517 96.25-6.87483 96.25-6.87485 82.5ZM6.8752 110 6.87522 123.75-6.87478 123.75-6.8748 110ZM6.87525 137.5 6.87527 151.25-6.87473 151.25-6.87475 137.5ZM6.8753 165 6.8753 165.079-6.8747 165.079-6.8747 165ZM20.6253 158.204 0.000360892 199.454-20.6247 158.204Z" transform="matrix(1 0 0 -1 976 631.454)"/><text font-family="Yu Gothic,Yu Gothic_MSFontService,sans-serif" font-weight="400" font-size="64" transform="matrix(1 0 0 1 805.296 817)">Provisioning </text><text font-family="Yu Gothic,Yu Gothic_MSFontService,sans-serif" font-weight="400" font-size="64" transform="matrix(1 0 0 1 805.296 894)">Certification Key</text><text font-family="Yu Gothic,Yu Gothic_MSFontService,sans-serif" font-weight="400" font-size="64" transform="matrix(1 0 0 1 805.296 971)">(PCK)</text><g clip-path="url(#clip1)"><g clip-path="url(#clip2)"><g clip-path="url(#clip3)"><path d="M1010.39 701.568 1019.8 710.979 1029.21 701.568 1038.62 710.979 1050.21 696.5 1038.62 682.021 979.984 682.021C974.772 672.465 964.781 666.094 953.198 666.094 936.402 666.094 922.792 679.704 922.792 696.5 922.792 713.296 936.402 726.906 953.198 726.906 964.781 726.906 974.772 720.535 979.984 710.979L989.396 710.979 995.188 705.187 1000.98 710.979 1010.39 701.568ZM940.167 705.187C935.389 705.187 931.479 701.278 931.479 696.5 931.479 691.722 935.389 687.812 940.167 687.812 944.945 687.812 948.854 691.722 948.854 696.5 948.854 701.278 944.945 705.187 940.167 705.187Z"/></g></g></g><path d="M1188.67 662.5C1202.58 662.5 1213.85 651.229 1213.85 637.326L1188.67 637.326C1195.63 637.326 1201.26 631.691 1201.26 624.739 1201.26 617.787 1195.63 612.152 1188.67 612.152L1213.85 612.152 1213.85 228.674C1213.85 214.771 1225.12 203.5 1239.02 203.5L1781.33 203.5C1795.23 203.5 1806.5 214.771 1806.5 228.674 1806.5 242.577 1795.23 253.847 1781.33 253.847L1756.15 253.848 1756.15 637.326C1756.15 651.229 1744.88 662.5 1730.98 662.5ZM1264.2 228.674C1264.2 242.577 1252.92 253.847 1239.02 253.847 1232.07 253.847 1226.43 248.212 1226.43 241.26 1226.43 234.308 1232.07 228.673 1239.02 228.673Z" fill="#FFFFFF" fill-rule="evenodd"/><path d="M1264.2 228.674C1264.2 242.577 1252.92 253.847 1239.02 253.847 1232.07 253.847 1226.43 248.212 1226.43 241.26 1226.43 234.308 1232.07 228.673 1239.02 228.673ZM1213.85 637.326C1213.85 651.229 1202.58 662.5 1188.67 662.5 1174.77 662.5 1163.5 651.229 1163.5 637.326 1163.5 623.423 1174.77 612.153 1188.67 612.153 1195.63 612.153 1201.26 617.788 1201.26 624.74 1201.26 631.691 1195.63 637.327 1188.67 637.327Z" fill="#CDCDCD" fill-rule="evenodd"/><path d="M1213.85 612.152 1213.85 228.674C1213.85 214.771 1225.12 203.5 1239.02 203.5L1781.33 203.5C1795.23 203.5 1806.5 214.771 1806.5 228.674 1806.5 242.577 1795.23 253.847 1781.33 253.847L1756.15 253.848 1756.15 637.326C1756.15 651.229 1744.88 662.5 1730.98 662.5L1188.67 662.5C1174.77 662.5 1163.5 651.229 1163.5 637.326 1163.5 623.423 1174.77 612.153 1188.67 612.153ZM1239.02 203.5C1252.92 203.5 1264.2 214.771 1264.2 228.674 1264.2 242.577 1252.92 253.847 1239.02 253.847 1232.07 253.847 1226.43 248.212 1226.43 241.26 1226.43 234.308 1232.07 228.673 1239.02 228.673L1264.2 228.674M1756.15 253.848 1239.02 253.848M1188.67 612.152C1195.63 612.152 1201.26 617.787 1201.26 624.739 1201.26 631.691 1195.63 637.326 1188.67 637.326L1213.85 637.326M1188.67 662.5C1202.58 662.5 1213.85 651.229 1213.85 637.326L1213.85 612.152" stroke="#000000" stroke-width="4.58333" stroke-miterlimit="8" fill="none" fill-rule="evenodd"/><text font-family="Yu Gothic,Yu Gothic_MSFontService,sans-serif" font-weight="400" font-size="83" transform="matrix(1 0 0 1 1274.57 422)">Attestation </text><text font-family="Yu Gothic,Yu Gothic_MSFontService,sans-serif" font-weight="400" font-size="83" transform="matrix(1 0 0 1 1320.41 521)">Key Cert</text><path d="M1755 432 2013.91 432" stroke="#000000" stroke-width="13.75" stroke-miterlimit="8" fill="none" fill-rule="evenodd"/><path d="M1755 1200 2017.84 1200" stroke="#000000" stroke-width="13.75" stroke-miterlimit="8" fill="none" fill-rule="evenodd"/><path d="M2011 432 2011 1199.75" stroke="#000000" stroke-width="13.75" stroke-miterlimit="8" fill="none" fill-rule="evenodd"/><path d="M2017 829.125 2403.96 829.125 2403.96 842.875 2017 842.875ZM2397.09 815.375 2438.34 836 2397.09 856.625Z"/><text font-family="Yu Gothic,Yu Gothic_MSFontService,sans-serif" font-weight="400" font-size="64" transform="matrix(1 0 0 1 2057.08 1239)">Attestation</text><text font-family="Yu Gothic,Yu Gothic_MSFontService,sans-serif" font-weight="400" font-size="64" transform="matrix(1 0 0 1 2164.21 1316)">Key</text><g clip-path="url(#clip4)"><g clip-path="url(#clip5)"><g clip-path="url(#clip6)"><path d="M62.9843 55.0367C54.9878 40.2645 36.53 34.7718 21.7578 42.7685 6.98566 50.7651 1.493 69.2228 9.48961 83.995 17.4862 98.7672 35.9439 104.26 50.7161 96.2632 55.91 93.4516 60.1728 89.1888 62.9843 83.995L72.3958 83.995 78.1874 78.2034 83.9791 83.995 93.3905 74.5836 102.802 83.995 112.213 74.5836 121.625 83.995 133.208 69.5159 121.625 55.0367ZM121.387 79.6657 114.267 72.5406 112.213 70.4932 110.17 72.5406 102.802 79.9075 95.4437 72.5406 93.3905 70.4932 91.3475 72.5406 83.9791 79.9075 80.2391 76.1603 78.1874 74.1144 76.143 76.1603 71.1998 81.105 61.2685 81.105 60.4447 82.6152C53.2113 95.9819 36.5116 100.954 23.1449 93.7207 9.77825 86.4873 4.80615 69.7876 12.0395 56.4209 19.2728 43.0542 35.9724 38.0821 49.3392 45.3154 54.0413 47.86 57.9003 51.719 60.4447 56.4209L61.2685 57.9311 120.239 57.9311 124.858 63.7083 66.6041 63.7083 66.6041 66.6041 127.175 66.6041 129.506 69.5188Z" transform="matrix(1 0 0 1 2151 1050)"/><path d="M23.1666 60.8298C18.3687 60.8298 14.4792 64.7194 14.4792 69.5173 14.4792 74.3153 18.3687 78.2048 23.1666 78.2048 27.9646 78.2048 31.8541 74.3153 31.8541 69.5173 31.8391 64.7256 27.9584 60.8449 23.1666 60.8298ZM23.1666 75.309C19.9681 75.309 17.375 72.7159 17.375 69.5173 17.375 66.3187 19.9681 63.7257 23.1666 63.7257 26.3652 63.7257 28.9583 66.3187 28.9583 69.5173 28.9558 72.7156 26.3649 75.3085 23.1666 75.3133Z" transform="matrix(1 0 0 1 2151 1050)"/></g></g></g><path d="M6.875-1.24396e-05 6.87502 13.75-6.87498 13.75-6.875 1.24396e-05ZM6.87505 27.5 6.87507 41.25-6.87493 41.25-6.87495 27.5ZM6.8751 55 6.87512 68.75-6.87488 68.75-6.8749 55ZM6.87515 82.5 6.87517 96.25-6.87483 96.25-6.87485 82.5ZM6.8752 110 6.87522 123.75-6.87478 123.75-6.8748 110ZM6.87525 137.5 6.87527 151.25-6.87473 151.25-6.87475 137.5ZM6.8753 165 6.8753 165.079-6.8747 165.079-6.8747 165ZM20.6253 158.204 0.000360892 199.454-20.6247 158.204Z" transform="matrix(1 0 0 -1 2209 1045.45)"/><text font-family="Yu Gothic,Yu Gothic_MSFontService,sans-serif" font-weight="400" font-size="64" transform="matrix(1 0 0 1 1015.37 585)">Sign</text><text font-family="Yu Gothic,Yu Gothic_MSFontService,sans-serif" font-weight="400" font-size="64" transform="matrix(1 0 0 1 2259.01 990)">Sign</text><path d="M2413.62 1065.5C2427.49 1065.5 2438.74 1054.25 2438.74 1040.38L2413.62 1040.38C2420.56 1040.38 2426.18 1034.76 2426.18 1027.82 2426.18 1020.89 2420.56 1015.26 2413.62 1015.26L2438.74 1015.26 2438.74 632.619C2438.74 618.746 2449.98 607.5 2463.86 607.5L3006.38 607.5C3020.25 607.5 3031.5 618.746 3031.5 632.619 3031.5 646.491 3020.25 657.737 3006.38 657.737L2981.26 657.738 2981.26 1040.38C2981.26 1054.25 2970.02 1065.5 2956.14 1065.5ZM2488.98 632.619C2488.98 646.491 2477.73 657.737 2463.86 657.737 2456.92 657.737 2451.3 652.114 2451.3 645.178 2451.3 638.241 2456.92 632.618 2463.86 632.618Z" fill="#FFFFFF" fill-rule="evenodd"/><path d="M2488.98 632.619C2488.98 646.491 2477.73 657.737 2463.86 657.737 2456.92 657.737 2451.3 652.114 2451.3 645.178 2451.3 638.241 2456.92 632.618 2463.86 632.618ZM2438.74 1040.38C2438.74 1054.25 2427.49 1065.5 2413.62 1065.5 2399.75 1065.5 2388.5 1054.25 2388.5 1040.38 2388.5 1026.51 2399.75 1015.26 2413.62 1015.26 2420.56 1015.26 2426.18 1020.89 2426.18 1027.82 2426.18 1034.76 2420.56 1040.38 2413.62 1040.38Z" fill="#CDCDCD" fill-rule="evenodd"/><path d="M2438.74 1015.26 2438.74 632.619C2438.74 618.746 2449.98 607.5 2463.86 607.5L3006.38 607.5C3020.25 607.5 3031.5 618.746 3031.5 632.619 3031.5 646.491 3020.25 657.737 3006.38 657.737L2981.26 657.738 2981.26 1040.38C2981.26 1054.25 2970.02 1065.5 2956.14 1065.5L2413.62 1065.5C2399.75 1065.5 2388.5 1054.25 2388.5 1040.38 2388.5 1026.51 2399.75 1015.26 2413.62 1015.26ZM2463.86 607.5C2477.73 607.5 2488.98 618.746 2488.98 632.619 2488.98 646.491 2477.73 657.737 2463.86 657.737 2456.92 657.737 2451.3 652.114 2451.3 645.178 2451.3 638.241 2456.92 632.618 2463.86 632.618L2488.98 632.619M2981.26 657.738 2463.86 657.738M2413.62 1015.26C2420.56 1015.26 2426.18 1020.89 2426.18 1027.82 2426.18 1034.76 2420.56 1040.38 2413.62 1040.38L2438.74 1040.38M2413.62 1065.5C2427.49 1065.5 2438.74 1054.25 2438.74 1040.38L2438.74 1015.26" stroke="#000000" stroke-width="4.58333" stroke-miterlimit="8" fill="none" fill-rule="evenodd"/><text font-family="Yu Gothic,Yu Gothic_MSFontService,sans-serif" font-weight="400" font-size="83" transform="matrix(1 0 0 1 2594.78 875)">Quote</text></g></svg>